# xmcd
#
# Track frame offsets:
#	150
#	14556
#	32041
#	52364
#	68269
#	86174
#
# Disc length: 1356 seconds
#
# Revision: 0
# Processed by: cddbd v1.5.2PL0 Copyright (c) Steve Scherf et al.
# Submitted via: dBpowerAMP V4.0
#
DISCID=4c054a06
DTITLE=小心女人 卡拉 EP - 鄭秀文
DYEAR=1900
DGENRE=Ballad
TTITLE0=小心女人 (頭號通緝版)
TTITLE1=小心女人 (C.Y. 號外 Mix Radio Edit)
TTITLE2=小心女人 (C.Y 號外 Mix Full Version)
TTITLE3=放不低 (Bozza Mix)
TTITLE4=放不低 Kala
TTITLE5=小心女人 Kala
EXTD=
EXTT0=
EXTT1=
EXTT2=
EXTT3=
EXTT4=
EXTT5=
PLAYORDER=
